<svg width="76" height="67" viewBox="0 0 76 67" fill="none" xmlns="http://www.w3.org/2000/svg">
<g opacity="0.06">
<path fill-rule="evenodd" clip-rule="evenodd" d="M75.2288 58.3384C77.4195 62.1327 74.6811 66.8757 70.2998 66.8757H6.22249C1.84114 66.8757 -0.897201 62.1327 1.29348 58.3384L33.3321 2.8458C35.5228 -0.948563 40.9995 -0.948558 43.1902 2.84581L75.2288 58.3384ZM55.3358 42.6866C55.3358 52.1167 47.6912 59.7613 38.2611 59.7613C28.8311 59.7613 21.1865 52.1167 21.1865 42.6866C21.1865 34.5909 26.8207 27.8111 34.3819 26.0546L30.1416 22.9738H36.3443L38.2611 17.0746L40.1778 22.9738H46.3805L42.1402 26.0545C49.7015 27.8111 55.3358 34.5909 55.3358 42.6866Z" fill="#E9E9E9"/>
</g>
</svg>
