<svg width="384" height="396" viewBox="0 0 384 396" fill="none" xmlns="http://www.w3.org/2000/svg">
<path style="mix-blend-mode:color-dodge" d="M83.8881 310.393C85.1708 305.913 82.7714 301.296 78.529 300.08C74.2866 298.863 69.8076 301.508 68.5249 305.987C67.2422 310.467 69.6415 315.084 73.884 316.3C78.1264 317.517 82.6054 314.872 83.8881 310.393Z" fill="url(#paint0_radial_101_11)"/>
<path style="mix-blend-mode:color-dodge" opacity="0.65" d="M103.277 368.634C104.968 362.833 101.885 356.829 96.3909 355.226C90.8966 353.622 85.0718 357.026 83.3807 362.827C81.6897 368.629 84.7728 374.632 90.2671 376.236C95.7614 377.839 101.586 374.436 103.277 368.634Z" fill="url(#paint1_radial_101_11)"/>
<path style="mix-blend-mode:color-dodge" opacity="0.93" d="M176.198 345.753C177.422 341.478 175.135 337.072 171.09 335.912C167.045 334.752 162.773 337.277 161.548 341.553C160.324 345.828 162.611 350.234 166.656 351.394C170.702 352.554 174.974 350.029 176.198 345.753Z" fill="url(#paint2_radial_101_11)"/>
<path style="mix-blend-mode:color-dodge" opacity="0.91" d="M60.1326 253.363C61.5474 248.422 58.9031 243.33 54.2264 241.989C49.5498 240.648 44.6117 243.566 43.1969 248.506C41.7821 253.447 44.4263 258.539 49.103 259.88C53.7797 261.221 58.7178 258.303 60.1326 253.363Z" fill="url(#paint3_radial_101_11)"/>
<path style="mix-blend-mode:color-dodge" opacity="0.68" d="M121.588 273.467C122.763 269.366 120.566 265.138 116.681 264.024C112.796 262.91 108.694 265.332 107.52 269.433C106.345 273.535 108.542 277.763 112.427 278.877C116.312 279.991 120.414 277.569 121.588 273.467Z" fill="url(#paint4_radial_101_11)"/>
<path style="mix-blend-mode:color-dodge" opacity="0.55" d="M222.172 298.923C223.817 293.281 220.82 287.444 215.479 285.886C210.138 284.327 204.476 287.636 202.831 293.278C201.187 298.919 204.184 304.757 209.524 306.315C214.865 307.874 220.528 304.564 222.172 298.923Z" fill="url(#paint5_radial_101_11)"/>
<path style="mix-blend-mode:color-dodge" opacity="0.7" d="M214.148 372.517C215.619 367.383 212.87 362.09 208.01 360.697C203.15 359.303 198.018 362.336 196.547 367.47C195.077 372.604 197.825 377.897 202.686 379.29C207.546 380.684 212.678 377.651 214.148 372.517Z" fill="url(#paint6_radial_101_11)"/>
<path style="mix-blend-mode:color-dodge" opacity="0.84" d="M326.52 294.319C328.186 288.503 325.073 282.508 319.568 280.93C314.063 279.351 308.25 282.786 306.585 288.603C304.919 294.419 308.032 300.414 313.537 301.992C319.042 303.571 324.855 300.136 326.52 294.319Z" fill="url(#paint7_radial_101_11)"/>
<path style="mix-blend-mode:color-dodge" opacity="0.71" d="M311.998 226.646C313.195 222.467 310.959 218.161 307.003 217.027C303.048 215.893 298.872 218.36 297.675 222.539C296.479 226.717 298.715 231.024 302.67 232.158C306.625 233.292 310.802 230.824 311.998 226.646Z" fill="url(#paint8_radial_101_11)"/>
<path style="mix-blend-mode:color-dodge" opacity="0.52" d="M246.788 250.633C247.899 246.821 245.874 242.877 242.264 241.823C238.655 240.77 234.828 243.006 233.717 246.818C232.605 250.631 234.631 254.575 238.24 255.628C241.85 256.682 245.677 254.446 246.788 250.633Z" fill="url(#paint9_radial_101_11)"/>
<path style="mix-blend-mode:color-dodge" opacity="0.68" d="M214.839 201.153C216.425 195.614 213.459 189.904 208.215 188.401C202.97 186.897 197.433 190.168 195.847 195.707C194.261 201.246 197.226 206.955 202.471 208.459C207.716 209.963 213.253 206.692 214.839 201.153Z" fill="url(#paint10_radial_101_11)"/>
<path style="mix-blend-mode:color-dodge" opacity="0.95" d="M56.9713 187.503C58.5747 181.904 55.5769 176.132 50.2755 174.612C44.9742 173.092 39.3768 176.399 37.7734 181.998C36.17 187.597 39.1678 193.368 44.4692 194.888C49.7705 196.408 55.3679 193.102 56.9713 187.503Z" fill="url(#paint11_radial_101_11)"/>
<path style="mix-blend-mode:color-dodge" opacity="0.52" d="M159.311 105.884C161.034 99.8667 157.814 93.665 152.118 92.0319C146.423 90.3987 140.409 93.9524 138.686 99.9693C136.963 105.986 140.183 112.188 145.879 113.821C151.574 115.454 157.588 111.901 159.311 105.884Z" fill="url(#paint12_radial_101_11)"/>
<path style="mix-blend-mode:color-dodge" opacity="0.57" d="M403.465 235.077C404.916 230.013 402.205 224.793 397.412 223.419C392.618 222.044 387.557 225.035 386.106 230.099C384.656 235.164 387.366 240.383 392.16 241.758C396.954 243.132 402.015 240.141 403.465 235.077Z" fill="url(#paint13_radial_101_11)"/>
<path style="mix-blend-mode:color-dodge" opacity="0.48" d="M387.934 315.755C389.277 311.065 386.769 306.232 382.333 304.96C377.897 303.688 373.212 306.459 371.869 311.149C370.526 315.838 373.033 320.671 377.47 321.944C381.906 323.216 386.591 320.445 387.934 315.755Z" fill="url(#paint14_radial_101_11)"/>
<path style="mix-blend-mode:color-dodge" opacity="0.79" d="M320.197 365.037C321.73 359.682 318.865 354.163 313.798 352.71C308.73 351.257 303.379 354.42 301.846 359.775C300.312 365.13 303.177 370.649 308.245 372.102C313.312 373.555 318.663 370.392 320.197 365.037Z" fill="url(#paint15_radial_101_11)"/>
<path style="mix-blend-mode:color-dodge" opacity="0.43" d="M374.19 364.789C375.578 359.942 372.985 354.947 368.399 353.632C363.812 352.317 358.969 355.18 357.581 360.027C356.193 364.874 358.786 369.869 363.372 371.184C367.959 372.499 372.802 369.636 374.19 364.789Z" fill="url(#paint16_radial_101_11)"/>
<path style="mix-blend-mode:color-dodge" opacity="0.52" d="M353.569 204.57C354.934 199.803 352.385 194.89 347.875 193.597C343.365 192.304 338.603 195.12 337.238 199.887C335.873 204.653 338.422 209.566 342.932 210.859C347.441 212.152 352.204 209.336 353.569 204.57Z" fill="url(#paint17_radial_101_11)"/>
<path style="mix-blend-mode:color-dodge" opacity="0.68" d="M215.286 152.304C216.567 147.832 214.174 143.222 209.942 142.009C205.71 140.795 201.24 143.437 199.959 147.909C198.679 152.382 201.071 156.992 205.304 158.205C209.536 159.419 214.006 156.777 215.286 152.304Z" fill="url(#paint18_radial_101_11)"/>
<path style="mix-blend-mode:color-dodge" opacity="0.54" d="M69.1241 141.949C70.8844 135.801 67.5941 129.465 61.775 127.797C55.9559 126.128 49.8115 129.759 48.0512 135.906C46.2908 142.053 49.5811 148.389 55.4002 150.058C61.2193 151.727 67.3637 148.096 69.1241 141.949Z" fill="url(#paint19_radial_101_11)"/>
<path style="mix-blend-mode:color-dodge" opacity="0.97" d="M160.699 299.394C162.36 293.591 159.253 287.609 153.758 286.033C148.263 284.458 142.461 287.885 140.799 293.688C139.137 299.491 142.245 305.472 147.74 307.048C153.235 308.624 159.037 305.197 160.699 299.394Z" fill="url(#paint20_radial_101_11)"/>
<g opacity="0.42">
<path opacity="0.42" d="M88.2886 196.2L148.917 62.1735" stroke="#1C74BA" stroke-miterlimit="10"/>
<path opacity="0.42" d="M148.917 66.7885C151.465 66.7885 153.529 64.7223 153.529 62.1734C153.529 59.6246 151.465 57.5583 148.917 57.5583C146.37 57.5583 144.305 59.6246 144.305 62.1734C144.305 64.7223 146.37 66.7885 148.917 66.7885Z" fill="#1C74BA"/>
<path opacity="0.42" d="M88.2885 200.815C90.8356 200.815 92.9005 198.749 92.9005 196.2C92.9005 193.651 90.8356 191.585 88.2885 191.585C85.7414 191.585 83.6765 193.651 83.6765 196.2C83.6765 198.749 85.7414 200.815 88.2885 200.815Z" fill="#1C74BA"/>
<path opacity="0.42" d="M306.385 53.4596L265.633 143.532" stroke="#1C74BA" stroke-miterlimit="10"/>
<path opacity="0.42" d="M306.385 53.4596L349.806 39.6962" stroke="#1C74BA" stroke-miterlimit="10"/>
<path opacity="0.42" d="M265.632 148.147C268.18 148.147 270.244 146.081 270.244 143.532C270.244 140.983 268.18 138.917 265.632 138.917C263.085 138.917 261.021 140.983 261.021 143.532C261.021 146.081 263.085 148.147 265.632 148.147Z" fill="#1C74BA"/>
<path opacity="0.42" d="M349.806 35.0812C351.028 35.0828 352.201 35.5696 353.065 36.4347C353.93 37.2999 354.416 38.4728 354.418 39.6963C354.416 40.9197 353.93 42.0926 353.065 42.9578C352.201 43.8229 351.028 44.3097 349.806 44.3113C348.583 44.3097 347.411 43.8229 346.546 42.9578C345.682 42.0926 345.195 40.9197 345.194 39.6963C345.195 38.4728 345.682 37.2999 346.546 36.4347C347.411 35.5696 348.583 35.0828 349.806 35.0812V35.0812Z" fill="#1C74BA"/>
<path opacity="0.42" d="M318.894 80.4009L272.799 182.285L229.378 196.055L188.626 286.128" stroke="#1C74BA" stroke-miterlimit="10"/>
<path opacity="0.42" d="M188.626 290.743C191.173 290.743 193.238 288.676 193.238 286.128C193.238 283.579 191.173 281.512 188.626 281.512C186.078 281.512 184.014 283.579 184.014 286.128C184.014 288.676 186.078 290.743 188.626 290.743Z" fill="#1C74BA"/>
<path opacity="0.42" d="M318.887 75.7858C320.11 75.7874 321.282 76.2742 322.147 77.1393C323.011 78.0045 323.497 79.1774 323.499 80.4008C323.497 81.6237 323.011 82.796 322.146 83.6601C321.281 84.5243 320.109 85.0096 318.887 85.0096C318.282 85.0096 317.683 84.8904 317.125 84.6588C316.566 84.4272 316.058 84.0877 315.631 83.6597C315.203 83.2318 314.863 82.7237 314.632 82.1645C314.401 81.6054 314.281 81.0061 314.281 80.4008C314.281 79.1779 314.766 78.005 315.63 77.1397C316.494 76.2744 317.665 75.7874 318.887 75.7858Z" fill="#1C74BA"/>
<path opacity="0.42" d="M363.541 353.119C366.088 353.119 368.153 351.052 368.153 348.504C368.153 345.955 366.088 343.888 363.541 343.888C360.994 343.888 358.929 345.955 358.929 348.504C358.929 351.052 360.994 353.119 363.541 353.119Z" fill="#1C74BA"/>
<path opacity="0.42" d="M362.792 348.459L406.219 334.69L446.965 244.617" stroke="#1C74BA" stroke-miterlimit="10"/>
<path opacity="0.42" d="M411.592 119.588L365.498 221.479L322.077 235.242L281.331 325.321" stroke="#1C74BA" stroke-miterlimit="10"/>
<path opacity="0.42" d="M281.331 329.936C283.878 329.936 285.943 327.87 285.943 325.321C285.943 322.772 283.878 320.706 281.331 320.706C278.784 320.706 276.719 322.772 276.719 325.321C276.719 327.87 278.784 329.936 281.331 329.936Z" fill="#1C74BA"/>
<path opacity="0.42" d="M269.08 421.715L306.662 338.644" stroke="#1C74BA" stroke-miterlimit="10"/>
<path opacity="0.42" d="M306.662 343.259C309.209 343.259 311.274 341.193 311.274 338.644C311.274 336.095 309.209 334.029 306.662 334.029C304.115 334.029 302.05 336.095 302.05 338.644C302.05 341.193 304.115 343.259 306.662 343.259Z" fill="#1C74BA"/>
<path opacity="0.42" d="M119.509 231.364L142.909 179.641" stroke="#1C74BA" stroke-miterlimit="10"/>
<path opacity="0.42" d="M142.909 184.256C145.456 184.256 147.521 182.19 147.521 179.641C147.521 177.092 145.456 175.026 142.909 175.026C140.361 175.026 138.297 177.092 138.297 179.641C138.297 182.19 140.361 184.256 142.909 184.256Z" fill="#1C74BA"/>
<path opacity="0.42" d="M119.509 235.979C122.056 235.979 124.121 233.912 124.121 231.364C124.121 228.815 122.056 226.749 119.509 226.749C116.962 226.749 114.897 228.815 114.897 231.364C114.897 233.912 116.962 235.979 119.509 235.979Z" fill="#1C74BA"/>
<path opacity="0.42" d="M360.603 133.799L384.009 82.0693" stroke="#1C74BA" stroke-miterlimit="10"/>
<path opacity="0.42" d="M384.009 86.6844C386.556 86.6844 388.621 84.6181 388.621 82.0693C388.621 79.5205 386.556 77.4542 384.009 77.4542C381.461 77.4542 379.397 79.5205 379.397 82.0693C379.397 84.6181 381.461 86.6844 384.009 86.6844Z" fill="#1C74BA"/>
<path opacity="0.42" d="M360.603 138.414C363.15 138.414 365.215 136.347 365.215 133.798C365.215 131.25 363.15 129.183 360.603 129.183C358.056 129.183 355.991 131.25 355.991 133.798C355.991 136.347 358.056 138.414 360.603 138.414Z" fill="#1C74BA"/>
<path opacity="0.42" d="M48.1208 329.275L71.5205 277.546" stroke="#1C74BA" stroke-miterlimit="10"/>
<path opacity="0.42" d="M71.5205 282.161C74.0677 282.161 76.1325 280.095 76.1325 277.546C76.1325 274.997 74.0677 272.931 71.5205 272.931C68.9734 272.931 66.9086 274.997 66.9086 277.546C66.9086 280.095 68.9734 282.161 71.5205 282.161Z" fill="#1C74BA"/>
<path opacity="0.42" d="M48.1209 333.89C50.668 333.89 52.7329 331.824 52.7329 329.275C52.7329 326.726 50.668 324.66 48.1209 324.66C45.5738 324.66 43.5089 326.726 43.5089 329.275C43.5089 331.824 45.5738 333.89 48.1209 333.89Z" fill="#1C74BA"/>
<path opacity="0.42" d="M51.5248 83.1019C54.0719 83.1019 56.1368 81.0356 56.1368 78.4868C56.1368 75.9379 54.0719 73.8717 51.5248 73.8717C48.9777 73.8717 46.9128 75.9379 46.9128 78.4868C46.9128 81.0356 48.9777 83.1019 51.5248 83.1019Z" fill="#1C74BA"/>
<path opacity="0.42" d="M-2.59187 313.516C-0.0447474 313.516 2.0201 311.45 2.0201 308.901C2.0201 306.352 -0.0447474 304.286 -2.59187 304.286C-5.13899 304.286 -7.20386 306.352 -7.20386 308.901C-7.20386 311.45 -5.13899 313.516 -2.59187 313.516Z" fill="#1C74BA"/>
<path opacity="0.42" d="M51.5248 78.4868L37.8966 108.608L44.7736 130.336L24.4004 175.372L38.1545 218.822L-2.59192 308.901" stroke="#1C74BA" stroke-miterlimit="10"/>
<path opacity="0.42" d="M118.691 284.377C121.238 284.377 123.303 282.311 123.303 279.762C123.303 277.213 121.238 275.147 118.691 275.147C116.144 275.147 114.079 277.213 114.079 279.762C114.079 282.311 116.144 284.377 118.691 284.377Z" fill="#1C74BA"/>
<path opacity="0.42" d="M192.671 42.3657L145.683 146.24L159.444 189.689L118.691 279.762" stroke="#1C74BA" stroke-miterlimit="10"/>
<path opacity="0.42" d="M40.5517 242.357C43.0988 242.357 45.1637 240.291 45.1637 237.742C45.1637 235.193 43.0988 233.127 40.5517 233.127C38.0046 233.127 35.9397 235.193 35.9397 237.742C35.9397 240.291 38.0046 242.357 40.5517 242.357Z" fill="#1C74BA"/>
<path opacity="0.42" d="M55.5265 66.2471L81.3045 147.669L40.5518 237.742" stroke="#1C74BA" stroke-miterlimit="10"/>
<path opacity="0.42" d="M55.5265 70.8621C58.0737 70.8621 60.1385 68.7959 60.1385 66.247C60.1385 63.6982 58.0737 61.632 55.5265 61.632C52.9794 61.632 50.9146 63.6982 50.9146 66.247C50.9146 68.7959 52.9794 70.8621 55.5265 70.8621Z" fill="#1C74BA"/>
<path opacity="0.42" d="M30.7364 67.8148C31.9591 67.8165 33.131 68.3032 33.9956 69.1684C34.8601 70.0335 35.3466 71.2064 35.3483 72.4299C35.3466 73.6534 34.8601 74.8263 33.9956 75.6914C33.131 76.5566 31.9591 77.0433 30.7364 77.045C29.5138 77.0433 28.3416 76.5566 27.4771 75.6914C26.6125 74.8263 26.1261 73.6534 26.1244 72.4299C26.1261 71.2064 26.6125 70.0335 27.4771 69.1684C28.3416 68.3032 29.5138 67.8165 30.7364 67.8148V67.8148Z" fill="#1C74BA"/>
<path opacity="0.42" d="M30.7364 72.4299L9.31869 119.777L-9.79616 125.834L-25.8028 161.212L-69.2233 174.975L-109.976 265.054" stroke="#1C74BA" stroke-miterlimit="10"/>
<path opacity="0.42" d="M177.005 393.861L161.004 429.239L117.577 443.002L96.8833 488.75" stroke="#1C74BA" stroke-miterlimit="10"/>
<path opacity="0.42" d="M177.005 398.111C179.552 398.111 181.617 396.045 181.617 393.496C181.617 390.947 179.552 388.881 177.005 388.881C174.457 388.881 172.393 390.947 172.393 393.496C172.393 396.045 174.457 398.111 177.005 398.111Z" fill="#1C74BA"/>
<path opacity="0.42" d="M340.94 184.558L324.934 219.936L281.513 233.699L260.813 279.447" stroke="#1C74BA" stroke-miterlimit="10"/>
<path opacity="0.42" d="M260.813 284.062C263.36 284.062 265.425 281.996 265.425 279.447C265.425 276.899 263.36 274.832 260.813 274.832C258.266 274.832 256.201 276.899 256.201 279.447C256.201 281.996 258.266 284.062 260.813 284.062Z" fill="#1C74BA"/>
<path opacity="0.42" d="M340.94 188.808C343.488 188.808 345.552 186.742 345.552 184.193C345.552 181.644 343.488 179.578 340.94 179.578C338.393 179.578 336.328 181.644 336.328 184.193C336.328 186.742 338.393 188.808 340.94 188.808Z" fill="#1C74BA"/>
<path opacity="0.42" d="M162.433 271.646C164.98 271.646 167.044 269.58 167.044 267.031C167.044 264.482 164.98 262.416 162.433 262.416C159.885 262.416 157.821 264.482 157.821 267.031C157.821 269.58 159.885 271.646 162.433 271.646Z" fill="#1C74BA"/>
<path opacity="0.42" d="M216.618 76.8687L190.073 135.549L203.185 176.959L162.432 267.031" stroke="#1C74BA" stroke-miterlimit="10"/>
<path opacity="0.42" d="M216.618 81.4837C219.166 81.4837 221.23 79.4175 221.23 76.8686C221.23 74.3198 219.166 72.2535 216.618 72.2535C214.071 72.2535 212.006 74.3198 212.006 76.8686C212.006 79.4175 214.071 81.4837 216.618 81.4837Z" fill="#1C74BA"/>
<path opacity="0.42" d="M372.306 181.177C374.853 181.177 376.918 179.111 376.918 176.562C376.918 174.013 374.853 171.947 372.306 171.947C369.759 171.947 367.694 174.013 367.694 176.562C367.694 179.111 369.759 181.177 372.306 181.177Z" fill="#1C74BA"/>
<path opacity="0.42" d="M350.114 289.723L361.49 264.576L349.554 226.862L372.306 176.562" stroke="#1C74BA" stroke-miterlimit="10"/>
<path opacity="0.42" d="M350.114 294.338C352.661 294.338 354.726 292.271 354.726 289.723C354.726 287.174 352.661 285.108 350.114 285.108C347.567 285.108 345.502 287.174 345.502 289.723C345.502 292.271 347.567 294.338 350.114 294.338Z" fill="#1C74BA"/>
<path opacity="0.42" d="M338.499 96.2293C341.046 96.2293 343.111 94.1631 343.111 91.6142C343.111 89.0654 341.046 86.9991 338.499 86.9991C335.952 86.9991 333.887 89.0654 333.887 91.6142C333.887 94.1631 335.952 96.2293 338.499 96.2293Z" fill="#1C74BA"/>
<path opacity="0.42" d="M316.465 193.266L306.605 162.112L338.499 91.6143" stroke="#1C74BA" stroke-miterlimit="10"/>
<path opacity="0.42" d="M316.465 197.881C319.012 197.881 321.077 195.814 321.077 193.266C321.077 190.717 319.012 188.651 316.465 188.651C313.918 188.651 311.853 190.717 311.853 193.266C311.853 195.814 313.918 197.881 316.465 197.881Z" fill="#1C74BA"/>
<path opacity="0.42" d="M19.8577 374.343C22.4048 374.343 24.4697 372.277 24.4697 369.728C24.4697 367.179 22.4048 365.113 19.8577 365.113C17.3106 365.113 15.2457 367.179 15.2457 369.728C15.2457 372.277 17.3106 374.343 19.8577 374.343Z" fill="#1C74BA"/>
<path opacity="0.42" d="M29.7171 400.881L19.8577 369.728" stroke="#1C74BA" stroke-miterlimit="10"/>
<path opacity="0.42" d="M369.915 378.133C372.462 378.133 374.527 376.067 374.527 373.518C374.527 370.969 372.462 368.903 369.915 368.903C367.368 368.903 365.303 370.969 365.303 373.518C365.303 376.067 367.368 378.133 369.915 378.133Z" fill="#1C74BA"/>
<path opacity="0.42" d="M396.907 239.996L410.661 283.445L369.915 373.518" stroke="#1C74BA" stroke-miterlimit="10"/>
<path opacity="0.42" d="M223.093 193.694C225.64 193.694 227.705 191.628 227.705 189.079C227.705 186.53 225.64 184.464 223.093 184.464C220.546 184.464 218.481 186.53 218.481 189.079C218.481 191.628 220.546 193.694 223.093 193.694Z" fill="#1C74BA"/>
<path opacity="0.42" d="M245.284 75.9243L233.909 101.071L245.851 138.785L223.093 189.079" stroke="#1C74BA" stroke-miterlimit="10"/>
<path opacity="0.42" d="M245.284 80.5394C247.832 80.5394 249.896 78.4731 249.896 75.9243C249.896 73.3754 247.832 71.3092 245.284 71.3092C242.737 71.3092 240.672 73.3754 240.672 75.9243C240.672 78.4731 242.737 80.5394 245.284 80.5394Z" fill="#1C74BA"/>
</g>
<path d="M230.398 261.875L180.534 372.095" stroke="#27A8DF" stroke-miterlimit="10"/>
<path d="M232.996 391.229L183.133 501.443" stroke="#27A8DF" stroke-miterlimit="10"/>
<path d="M99.5447 429.119L135.251 417.799L168.762 343.725" stroke="#27A8DF" stroke-miterlimit="10"/>
<path d="M33.6117 495.852L71.5142 412.063L107.227 400.743L140.738 326.668" stroke="#27A8DF" stroke-miterlimit="10"/>
<path d="M-72.1805 526.294L-34.278 442.505L1.4286 431.185L34.9457 357.11" stroke="#27A8DF" stroke-miterlimit="10"/>
<path d="M37.1226 281.21L6.22302 349.523" stroke="#27A8DF" stroke-miterlimit="10"/>
<path d="M176.677 189.349L145.778 257.663" stroke="#27A8DF" stroke-miterlimit="10"/>
<path d="M248.707 455.645L259.907 430.876L254.25 413.008L271.006 375.967L259.693 340.237L293.21 266.162" stroke="#27A8DF" stroke-miterlimit="10"/>
<path d="M108.744 504.459L147.388 419.039L136.076 383.309L169.586 309.234" stroke="#27A8DF" stroke-miterlimit="10"/>
<path d="M214.297 482.807L193.099 415.847L226.61 341.773" stroke="#27A8DF" stroke-miterlimit="10"/>
<path d="M11.5082 253.872L3.39795 228.247L13.723 205.423" stroke="#27A8DF" stroke-miterlimit="10"/>
<path d="M311.513 478.469L329.124 439.533L344.848 434.547L358.01 405.452L393.717 394.132L427.228 320.057" stroke="#27A8DF" stroke-miterlimit="10"/>
<path d="M277.436 351.009L290.599 321.921L326.305 310.601L343.325 272.981" stroke="#27A8DF" stroke-miterlimit="10"/>
<path d="M42.8923 386.192L56.0487 357.098L91.7554 345.777L108.775 308.158" stroke="#27A8DF" stroke-miterlimit="10"/>
<path d="M284.08 481.075L293.436 460.392L283.621 429.378L302.333 388.018" stroke="#27A8DF" stroke-miterlimit="10"/>
<path d="M249.966 320.593L241.855 294.974L268.08 236.999L259.97 211.38" stroke="#27A8DF" stroke-miterlimit="10"/>
<path d="M89.9558 395.378L140.537 283.559L176.249 272.245L196.793 226.824L232.499 215.504" stroke="#27A8DF" stroke-miterlimit="10"/>
<path d="M287.107 515.673L355.871 363.677L344.558 327.94L378.069 253.872" stroke="#27A8DF" stroke-miterlimit="10"/>
<path d="M110.436 179.471L99.2302 204.24L104.887 222.102L88.1312 259.142L99.4441 294.873L65.9333 368.947" stroke="#27A8DF" stroke-miterlimit="10"/>
<path d="M180.534 375.892C182.63 375.892 184.328 374.192 184.328 372.095C184.328 369.998 182.63 368.299 180.534 368.299C178.439 368.299 176.74 369.998 176.74 372.095C176.74 374.192 178.439 375.892 180.534 375.892Z" fill="#27A8DF"/>
<path d="M230.398 265.671C232.493 265.671 234.192 263.971 234.192 261.875C234.192 259.778 232.493 258.078 230.398 258.078C228.302 258.078 226.604 259.778 226.604 261.875C226.604 263.971 228.302 265.671 230.398 265.671Z" fill="#27A8DF"/>
<path d="M232.996 395.026C235.092 395.026 236.79 393.326 236.79 391.229C236.79 389.132 235.092 387.433 232.996 387.433C230.901 387.433 229.202 389.132 229.202 391.229C229.202 393.326 230.901 395.026 232.996 395.026Z" fill="#27A8DF"/>
<path d="M168.762 347.521C170.858 347.521 172.556 345.822 172.556 343.725C172.556 341.628 170.858 339.928 168.762 339.928C166.667 339.928 164.968 341.628 164.968 343.725C164.968 345.822 166.667 347.521 168.762 347.521Z" fill="#27A8DF"/>
<path d="M140.738 330.465C142.833 330.465 144.532 328.765 144.532 326.668C144.532 324.572 142.833 322.872 140.738 322.872C138.642 322.872 136.944 324.572 136.944 326.668C136.944 328.765 138.642 330.465 140.738 330.465Z" fill="#27A8DF"/>
<path d="M34.9456 360.907C37.041 360.907 38.7397 359.207 38.7397 357.11C38.7397 355.014 37.041 353.314 34.9456 353.314C32.8503 353.314 31.1516 355.014 31.1516 357.11C31.1516 359.207 32.8503 360.907 34.9456 360.907Z" fill="#27A8DF"/>
<path d="M6.22298 353.32C8.31836 353.32 10.017 351.62 10.017 349.523C10.017 347.427 8.31836 345.727 6.22298 345.727C4.1276 345.727 2.42896 347.427 2.42896 349.523C2.42896 351.62 4.1276 353.32 6.22298 353.32Z" fill="#27A8DF"/>
<path d="M37.1226 285.007C39.218 285.007 40.9167 283.307 40.9167 281.21C40.9167 279.113 39.218 277.414 37.1226 277.414C35.0273 277.414 33.3286 279.113 33.3286 281.21C33.3286 283.307 35.0273 285.007 37.1226 285.007Z" fill="#27A8DF"/>
<path d="M145.778 261.459C147.873 261.459 149.572 259.759 149.572 257.663C149.572 255.566 147.873 253.866 145.778 253.866C143.682 253.866 141.984 255.566 141.984 257.663C141.984 259.759 143.682 261.459 145.778 261.459Z" fill="#27A8DF"/>
<path d="M176.677 193.146C178.773 193.146 180.471 191.446 180.471 189.349C180.471 187.253 178.773 185.553 176.677 185.553C174.582 185.553 172.883 187.253 172.883 189.349C172.883 191.446 174.582 193.146 176.677 193.146Z" fill="#27A8DF"/>
<path d="M293.21 269.959C295.305 269.959 297.004 268.259 297.004 266.162C297.004 264.066 295.305 262.366 293.21 262.366C291.115 262.366 289.416 264.066 289.416 266.162C289.416 268.259 291.115 269.959 293.21 269.959Z" fill="#27A8DF"/>
<path d="M169.586 313.031C171.682 313.031 173.38 311.331 173.38 309.234C173.38 307.138 171.682 305.438 169.586 305.438C167.491 305.438 165.792 307.138 165.792 309.234C165.792 311.331 167.491 313.031 169.586 313.031Z" fill="#27A8DF"/>
<path d="M13.723 209.22C15.8184 209.22 17.517 207.52 17.517 205.424C17.517 203.327 15.8184 201.627 13.723 201.627C11.6276 201.627 9.92896 203.327 9.92896 205.424C9.92896 207.52 11.6276 209.22 13.723 209.22Z" fill="#27A8DF"/>
<path d="M11.5083 257.663C13.6036 257.663 15.3023 255.963 15.3023 253.866C15.3023 251.769 13.6036 250.069 11.5083 250.069C9.41288 250.069 7.71423 251.769 7.71423 253.866C7.71423 255.963 9.41288 257.663 11.5083 257.663Z" fill="#27A8DF"/>
<path d="M343.325 276.778C345.42 276.778 347.119 275.078 347.119 272.981C347.119 270.884 345.42 269.185 343.325 269.185C341.23 269.185 339.531 270.884 339.531 272.981C339.531 275.078 341.23 276.778 343.325 276.778Z" fill="#27A8DF"/>
<path d="M277.436 355.108C279.532 355.108 281.23 353.408 281.23 351.312C281.23 349.215 279.532 347.515 277.436 347.515C275.341 347.515 273.642 349.215 273.642 351.312C273.642 353.408 275.341 355.108 277.436 355.108Z" fill="#27A8DF"/>
<path d="M108.781 311.954C110.877 311.954 112.575 310.255 112.575 308.158C112.575 306.061 110.877 304.361 108.781 304.361C106.686 304.361 104.987 306.061 104.987 308.158C104.987 310.255 106.686 311.954 108.781 311.954Z" fill="#27A8DF"/>
<path d="M42.8861 390.285C44.9814 390.285 46.6801 388.585 46.6801 386.488C46.6801 384.391 44.9814 382.692 42.8861 382.692C40.7907 382.692 39.092 384.391 39.092 386.488C39.092 388.585 40.7907 390.285 42.8861 390.285Z" fill="#27A8DF"/>
<path d="M249.966 324.389C252.061 324.389 253.76 322.69 253.76 320.593C253.76 318.496 252.061 316.796 249.966 316.796C247.87 316.796 246.172 318.496 246.172 320.593C246.172 322.69 247.87 324.389 249.966 324.389Z" fill="#27A8DF"/>
<path d="M259.97 215.176C262.065 215.176 263.764 213.476 263.764 211.38C263.764 209.283 262.065 207.583 259.97 207.583C257.874 207.583 256.176 209.283 256.176 211.38C256.176 213.476 257.874 215.176 259.97 215.176Z" fill="#27A8DF"/>
<path d="M232.499 219.3C234.595 219.3 236.293 217.6 236.293 215.504C236.293 213.407 234.595 211.707 232.499 211.707C230.404 211.707 228.705 213.407 228.705 215.504C228.705 217.6 230.404 219.3 232.499 219.3Z" fill="#27A8DF"/>
<path d="M89.9496 399.175C89.203 399.175 88.473 398.953 87.8522 398.538C87.2314 398.123 86.7476 397.533 86.4619 396.843C86.1761 396.153 86.1013 395.393 86.247 394.66C86.3926 393.927 86.7522 393.254 87.2801 392.726C87.8081 392.198 88.4809 391.838 89.2132 391.692C89.9455 391.546 90.7045 391.621 91.3943 391.907C92.0841 392.193 92.6737 392.677 93.0885 393.298C93.5033 393.92 93.7248 394.65 93.7248 395.397C93.7248 396.399 93.327 397.36 92.6191 398.068C91.9111 398.777 90.9508 399.175 89.9496 399.175V399.175Z" fill="#27A8DF"/>
<path d="M378.069 258.084C380.164 258.084 381.863 256.385 381.863 254.288C381.863 252.191 380.164 250.491 378.069 250.491C375.974 250.491 374.275 252.191 374.275 254.288C374.275 256.385 375.974 258.084 378.069 258.084Z" fill="#27A8DF"/>
<path d="M110.436 183.267C112.531 183.267 114.23 181.568 114.23 179.471C114.23 177.374 112.531 175.674 110.436 175.674C108.341 175.674 106.642 177.374 106.642 179.471C106.642 181.568 108.341 183.267 110.436 183.267Z" fill="#27A8DF"/>
<path d="M65.9333 372.744C68.0287 372.744 69.7273 371.044 69.7273 368.947C69.7273 366.85 68.0287 365.151 65.9333 365.151C63.8379 365.151 62.1393 366.85 62.1393 368.947C62.1393 371.044 63.8379 372.744 65.9333 372.744Z" fill="#27A8DF"/>
<path d="M302.333 391.815C304.429 391.815 306.127 390.115 306.127 388.018C306.127 385.921 304.429 384.222 302.333 384.222C300.238 384.222 298.539 385.921 298.539 388.018C298.539 390.115 300.238 391.815 302.333 391.815Z" fill="#27A8DF"/>
<path d="M226.61 345.569C228.705 345.569 230.404 343.87 230.404 341.773C230.404 339.676 228.705 337.976 226.61 337.976C224.515 337.976 222.816 339.676 222.816 341.773C222.816 343.87 224.515 345.569 226.61 345.569Z" fill="#27A8DF"/>
<path style="mix-blend-mode:color-dodge" opacity="0.44" d="M43.2009 390.566C44.4249 386.367 42.1964 382.023 38.2233 380.863C34.2502 379.703 30.0371 382.168 28.8131 386.367C27.5891 390.566 29.8176 394.911 33.7907 396.07C37.7638 397.23 41.9769 394.766 43.2009 390.566Z" fill="url(#paint21_radial_101_11)"/>
<path style="mix-blend-mode:color-dodge" opacity="0.91" d="M81.2336 386.774C82.2052 383.381 80.3905 379.885 77.1803 378.964C73.9701 378.044 70.5801 380.048 69.6085 383.441C68.6369 386.834 70.4516 390.33 73.6618 391.251C76.872 392.171 80.262 390.167 81.2336 386.774Z" fill="url(#paint22_radial_101_11)"/>
<path style="mix-blend-mode:color-dodge" opacity="0.68" d="M123.418 400.58C124.224 397.765 122.716 394.864 120.05 394.1C117.385 393.335 114.57 394.997 113.764 397.812C112.958 400.627 114.466 403.528 117.132 404.292C119.797 405.057 122.612 403.395 123.418 400.58Z" fill="url(#paint23_radial_101_11)"/>
<path style="mix-blend-mode:color-dodge" opacity="0.71" d="M254.123 368.432C254.944 365.563 253.409 362.607 250.693 361.828C247.977 361.05 245.11 362.743 244.288 365.611C243.467 368.479 245.003 371.436 247.719 372.215C250.434 372.993 253.302 371.3 254.123 368.432Z" fill="url(#paint24_radial_101_11)"/>
<path style="mix-blend-mode:color-dodge" opacity="0.52" d="M203.279 382.829C204.03 380.208 202.626 377.507 200.144 376.795C197.662 376.083 195.042 377.631 194.291 380.251C193.541 382.872 194.945 385.574 197.427 386.285C199.908 386.997 202.529 385.449 203.279 382.829Z" fill="url(#paint25_radial_101_11)"/>
<path style="mix-blend-mode:color-dodge" opacity="0.68" d="M187.43 350.937C188.519 347.133 186.483 343.212 182.882 342.18C179.281 341.147 175.478 343.394 174.389 347.198C173.3 351.002 175.336 354.923 178.937 355.955C182.538 356.988 186.34 354.741 187.43 350.937Z" fill="url(#paint26_radial_101_11)"/>
<path style="mix-blend-mode:color-dodge" opacity="0.95" d="M87.075 344.815C88.1939 340.976 86.156 337.004 82.5231 335.944C78.8903 334.884 75.0382 337.136 73.9193 340.975C72.8004 344.814 74.8383 348.786 78.4711 349.846C82.104 350.906 85.956 348.654 87.075 344.815Z" fill="url(#paint27_radial_101_11)"/>
<path style="mix-blend-mode:color-dodge" opacity="0.72" d="M40.4766 329.613C41.3552 326.599 39.7552 323.48 36.903 322.648C34.0508 321.815 31.0263 323.584 30.1477 326.599C29.2691 329.613 30.8691 332.731 33.7213 333.564C36.5735 334.396 39.598 332.628 40.4766 329.613Z" fill="url(#paint28_radial_101_11)"/>
<path style="mix-blend-mode:color-dodge" opacity="0.52" d="M157.726 288.627C158.929 284.501 156.737 280.232 152.83 279.092C148.924 277.952 144.782 280.372 143.58 284.498C142.377 288.624 144.569 292.893 148.475 294.033C152.382 295.174 156.523 292.753 157.726 288.627Z" fill="url(#paint29_radial_101_11)"/>
<path style="mix-blend-mode:color-dodge" opacity="0.95" d="M339.104 309.555C340.078 306.155 338.259 302.652 335.042 301.729C331.826 300.807 328.429 302.815 327.455 306.215C326.482 309.614 328.3 313.118 331.517 314.04C334.734 314.963 338.131 312.955 339.104 309.555Z" fill="url(#paint30_radial_101_11)"/>
<path style="mix-blend-mode:color-dodge" opacity="0.57" d="M316.909 374.226C317.904 370.749 316.044 367.166 312.754 366.223C309.463 365.279 305.989 367.332 304.993 370.809C303.998 374.285 305.858 377.868 309.149 378.812C312.439 379.755 315.913 377.702 316.909 374.226Z" fill="url(#paint31_radial_101_11)"/>
<path style="mix-blend-mode:color-dodge" opacity="0.52" d="M282.662 353.283C283.6 350.011 281.849 346.638 278.752 345.75C275.656 344.862 272.386 346.795 271.449 350.068C270.511 353.34 272.262 356.713 275.359 357.601C278.455 358.489 281.725 356.556 282.662 353.283Z" fill="url(#paint32_radial_101_11)"/>
<path style="mix-blend-mode:color-dodge" opacity="0.68" d="M187.733 317.405C188.612 314.336 186.968 311.173 184.062 310.339C181.156 309.506 178.087 311.318 177.209 314.387C176.33 317.456 177.973 320.619 180.88 321.452C183.786 322.285 186.854 320.473 187.733 317.405Z" fill="url(#paint33_radial_101_11)"/>
<path style="mix-blend-mode:color-dodge" opacity="0.54" d="M87.408 310.296C88.616 306.078 86.3566 301.729 82.3613 300.584C78.3661 299.438 74.1481 301.929 72.94 306.147C71.732 310.366 73.9914 314.715 77.9867 315.86C81.9819 317.006 86.2 314.515 87.408 310.296Z" fill="url(#paint34_radial_101_11)"/>
<path style="mix-blend-mode:color-dodge" opacity="0.62" d="M12.1628 360.295C13.2933 356.348 11.1795 352.278 7.44151 351.207C3.70351 350.135 -0.2432 352.466 -1.3737 356.414C-2.50419 360.362 -0.390404 364.431 3.3476 365.503C7.0856 366.575 11.0323 364.243 12.1628 360.295Z" fill="url(#paint35_radial_101_11)"/>
<path style="mix-blend-mode:color-dodge" opacity="0.62" d="M3.24875 400.203C4.20599 396.86 2.41751 393.415 -0.745931 392.508C-3.90937 391.601 -7.24984 393.575 -8.20708 396.918C-9.16431 400.261 -7.37583 403.706 -4.21239 404.613C-1.04896 405.52 2.29151 403.546 3.24875 400.203Z" fill="url(#paint36_radial_101_11)"/>
<g opacity="0.56">
<path style="mix-blend-mode:color-dodge" d="M5.49053 363.02C6.06975 360.044 3.99546 357.135 0.857478 356.524C-2.28051 355.912 -5.2939 357.829 -5.87312 360.805C-6.45233 363.782 -4.37803 366.69 -1.24004 367.302C1.89794 367.913 4.91132 365.996 5.49053 363.02Z" fill="url(#paint37_radial_101_11)"/>
<path style="mix-blend-mode:color-dodge" opacity="0.65" d="M-0.493248 298.73C0.180289 295.269 -2.23231 291.887 -5.88192 291.176C-9.53153 290.464 -13.0361 292.693 -13.7097 296.154C-14.3832 299.615 -11.9706 302.997 -8.32099 303.709C-4.67138 304.42 -1.16679 302.191 -0.493248 298.73Z" fill="url(#paint38_radial_101_11)"/>
<path style="mix-blend-mode:color-dodge" opacity="0.44" d="M41.1596 296.192C41.9507 292.127 39.1136 288.154 34.8227 287.318C30.5319 286.481 26.4121 289.099 25.621 293.164C24.8299 297.229 27.667 301.202 31.9579 302.038C36.2487 302.875 40.3685 300.257 41.1596 296.192Z" fill="url(#paint39_radial_101_11)"/>
<path style="mix-blend-mode:color-dodge" opacity="0.91" d="M43.7441 342.938C44.3825 339.658 42.0934 336.453 38.6314 335.778C35.1694 335.103 31.8454 337.215 31.2071 340.495C30.5688 343.775 32.8578 346.981 36.3198 347.656C39.7818 348.331 43.1058 346.218 43.7441 342.938Z" fill="url(#paint40_radial_101_11)"/>
<path style="mix-blend-mode:color-dodge" opacity="0.68" d="M32.3876 386.981C32.9176 384.258 31.0192 381.596 28.1472 381.036C25.2753 380.477 22.5174 382.231 21.9873 384.955C21.4573 387.678 23.3558 390.34 26.2277 390.9C29.0996 391.459 31.8575 389.705 32.3876 386.981Z" fill="url(#paint41_radial_101_11)"/>
<path style="mix-blend-mode:color-dodge" opacity="0.95" d="M89.548 336.233C90.2714 332.516 87.678 328.884 83.7555 328.119C79.833 327.355 76.0668 329.748 75.3435 333.465C74.6201 337.182 77.2135 340.815 81.136 341.579C85.0585 342.344 88.8247 339.95 89.548 336.233Z" fill="url(#paint42_radial_101_11)"/>
<path style="mix-blend-mode:color-dodge" opacity="0.72" d="M98.7193 289.801C99.2873 286.883 97.2508 284.031 94.1708 283.431C91.0908 282.831 88.1336 284.71 87.5657 287.628C86.9978 290.546 89.0342 293.398 92.1142 293.999C95.1942 294.599 98.1514 292.72 98.7193 289.801Z" fill="url(#paint43_radial_101_11)"/>
<path style="mix-blend-mode:color-dodge" opacity="0.52" d="M152.027 401.018C152.805 397.021 150.018 393.115 145.802 392.293C141.586 391.472 137.538 394.046 136.76 398.042C135.983 402.039 138.77 405.945 142.985 406.767C147.201 407.588 151.249 405.014 152.027 401.018Z" fill="url(#paint44_radial_101_11)"/>
<path style="mix-blend-mode:color-dodge" opacity="0.54" d="M122.216 341.317C123.01 337.235 120.165 333.245 115.86 332.407C111.556 331.568 107.422 334.197 106.628 338.279C105.834 342.361 108.679 346.35 112.984 347.189C117.288 348.028 121.422 345.399 122.216 341.317Z" fill="url(#paint45_radial_101_11)"/>
<path style="mix-blend-mode:color-dodge" opacity="0.62" d="M65.3383 271.019C66.0816 267.199 63.4186 263.467 59.3904 262.682C55.3622 261.897 51.4941 264.357 50.7509 268.176C50.0076 271.995 52.6705 275.728 56.6988 276.513C60.727 277.298 64.595 274.838 65.3383 271.019Z" fill="url(#paint46_radial_101_11)"/>
<path style="mix-blend-mode:color-dodge" opacity="0.62" d="M23.5107 266.44C24.1397 263.208 21.8846 260.049 18.4738 259.384C15.0629 258.719 11.7879 260.801 11.1589 264.033C10.5299 267.265 12.7849 270.424 16.1958 271.089C19.6066 271.754 22.8817 269.672 23.5107 266.44Z" fill="url(#paint47_radial_101_11)"/>
</g>
<defs>
<radialGradient id="paint0_radial_101_11" cx="0" cy="0" r="1" gradientUnits="userSpaceOnUse" gradientTransform="translate(83.0893 309.467) rotate(16.0002) scale(7.65136 7.89743)">
<stop offset="0.11" stop-color="#EFF0F0"/>
<stop offset="1" stop-color="#231F20" stop-opacity="0.31"/>
</radialGradient>
<radialGradient id="paint1_radial_101_11" cx="0" cy="0" r="1" gradientUnits="userSpaceOnUse" gradientTransform="translate(100.238 367.17) rotate(16.2706) scale(9.92288 10.242)">
<stop offset="0.11" stop-color="#EFF0F0"/>
<stop offset="1" stop-color="#231F20" stop-opacity="0.31"/>
</radialGradient>
<radialGradient id="paint2_radial_101_11" cx="0" cy="0" r="1" gradientUnits="userSpaceOnUse" gradientTransform="translate(176.026 345.032) rotate(16.0002) scale(7.29868 7.53349)">
<stop offset="0.11" stop-color="#EFF0F0"/>
<stop offset="1" stop-color="#231F20" stop-opacity="0.31"/>
</radialGradient>
<radialGradient id="paint3_radial_101_11" cx="0" cy="0" r="1" gradientUnits="userSpaceOnUse" gradientTransform="translate(58.4624 252.078) rotate(16.0002) scale(8.44041 8.71193)">
<stop offset="0.11" stop-color="#EFF0F0"/>
<stop offset="1" stop-color="#231F20" stop-opacity="0.31"/>
</radialGradient>
<radialGradient id="paint4_radial_101_11" cx="0" cy="0" r="1" gradientUnits="userSpaceOnUse" gradientTransform="translate(121.539 272.656) rotate(16.0002) scale(7.00578 7.23115)">
<stop offset="0.11" stop-color="#EFF0F0"/>
<stop offset="1" stop-color="#231F20" stop-opacity="0.31"/>
</radialGradient>
<radialGradient id="paint5_radial_101_11" cx="0" cy="0" r="1" gradientUnits="userSpaceOnUse" gradientTransform="translate(219.748 297.402) rotate(16.2706) scale(9.64791 9.95824)">
<stop offset="0.11" stop-color="#EFF0F0"/>
<stop offset="1" stop-color="#231F20" stop-opacity="0.31"/>
</radialGradient>
<radialGradient id="paint6_radial_101_11" cx="0" cy="0" r="1" gradientUnits="userSpaceOnUse" gradientTransform="translate(212.613 371.441) rotate(16.0002) scale(8.76917 9.05132)">
<stop offset="0.11" stop-color="#EFF0F0"/>
<stop offset="1" stop-color="#231F20" stop-opacity="0.31"/>
</radialGradient>
<radialGradient id="paint7_radial_101_11" cx="0" cy="0" r="1" gradientUnits="userSpaceOnUse" gradientTransform="translate(324.128 292.75) rotate(16.0002) scale(9.92884 10.2482)">
<stop offset="0.11" stop-color="#EFF0F0"/>
<stop offset="1" stop-color="#231F20" stop-opacity="0.31"/>
</radialGradient>
<radialGradient id="paint8_radial_101_11" cx="0" cy="0" r="1" gradientUnits="userSpaceOnUse" gradientTransform="translate(312.359 225.721) rotate(16.0002) scale(7.13729 7.36688)">
<stop offset="0.11" stop-color="#EFF0F0"/>
<stop offset="1" stop-color="#231F20" stop-opacity="0.31"/>
</radialGradient>
<radialGradient id="paint9_radial_101_11" cx="0" cy="0" r="1" gradientUnits="userSpaceOnUse" gradientTransform="translate(247.564 249.93) rotate(16.2706) scale(6.5216 6.73139)">
<stop offset="0.11" stop-color="#EFF0F0"/>
<stop offset="1" stop-color="#231F20" stop-opacity="0.31"/>
</radialGradient>
<radialGradient id="paint10_radial_101_11" cx="0" cy="0" r="1" gradientUnits="userSpaceOnUse" gradientTransform="translate(212.578 199.482) rotate(16.0002) scale(9.46258 9.76701)">
<stop offset="0.11" stop-color="#EFF0F0"/>
<stop offset="1" stop-color="#231F20" stop-opacity="0.31"/>
</radialGradient>
<radialGradient id="paint11_radial_101_11" cx="0" cy="0" r="1" gradientUnits="userSpaceOnUse" gradientTransform="translate(54.1478 185.752) rotate(16.0002) scale(9.5642 9.87186)">
<stop offset="0.11" stop-color="#EFF0F0"/>
<stop offset="1" stop-color="#231F20" stop-opacity="0.31"/>
</radialGradient>
<radialGradient id="paint12_radial_101_11" cx="0" cy="0" r="1" gradientUnits="userSpaceOnUse" gradientTransform="translate(156.054 103.758) rotate(16.0002) scale(10.2755 10.6061)">
<stop offset="0.11" stop-color="#EFF0F0"/>
<stop offset="1" stop-color="#231F20" stop-opacity="0.31"/>
</radialGradient>
<radialGradient id="paint13_radial_101_11" cx="0" cy="0" r="1" gradientUnits="userSpaceOnUse" gradientTransform="translate(402.572 233.756) rotate(16.0002) scale(8.64963 8.92788)">
<stop offset="0.11" stop-color="#EFF0F0"/>
<stop offset="1" stop-color="#231F20" stop-opacity="0.31"/>
</radialGradient>
<radialGradient id="paint14_radial_101_11" cx="0" cy="0" r="1" gradientUnits="userSpaceOnUse" gradientTransform="translate(387.656 314.807) rotate(16.0002) scale(8.00405 8.26153)">
<stop offset="0.11" stop-color="#EFF0F0"/>
<stop offset="1" stop-color="#231F20" stop-opacity="0.31"/>
</radialGradient>
<radialGradient id="paint15_radial_101_11" cx="0" cy="0" r="1" gradientUnits="userSpaceOnUse" gradientTransform="translate(318.587 363.859) rotate(16.0002) scale(9.14577 9.43998)">
<stop offset="0.11" stop-color="#EFF0F0"/>
<stop offset="1" stop-color="#231F20" stop-opacity="0.31"/>
</radialGradient>
<radialGradient id="paint16_radial_101_11" cx="0" cy="0" r="1" gradientUnits="userSpaceOnUse" gradientTransform="translate(373.61 363.868) rotate(16.0002) scale(8.27901 8.54533)">
<stop offset="0.11" stop-color="#EFF0F0"/>
<stop offset="1" stop-color="#231F20" stop-opacity="0.31"/>
</radialGradient>
<radialGradient id="paint17_radial_101_11" cx="0" cy="0" r="1" gradientUnits="userSpaceOnUse" gradientTransform="translate(353.039 203.316) rotate(16.0002) scale(8.13555 8.39726)">
<stop offset="0.11" stop-color="#EFF0F0"/>
<stop offset="1" stop-color="#231F20" stop-opacity="0.31"/>
</radialGradient>
<radialGradient id="paint18_radial_101_11" cx="0" cy="0" r="1" gradientUnits="userSpaceOnUse" gradientTransform="translate(214.85 151.055) rotate(16.0002) scale(7.63941 7.88515)">
<stop offset="0.11" stop-color="#EFF0F0"/>
<stop offset="1" stop-color="#231F20" stop-opacity="0.31"/>
</radialGradient>
<radialGradient id="paint19_radial_101_11" cx="0" cy="0" r="1" gradientUnits="userSpaceOnUse" gradientTransform="translate(65.3907 139.817) rotate(16.0002) scale(10.4967 10.8343)">
<stop offset="0.11" stop-color="#EFF0F0"/>
<stop offset="1" stop-color="#231F20" stop-opacity="0.31"/>
</radialGradient>
<radialGradient id="paint20_radial_101_11" cx="0" cy="0" r="1" gradientUnits="userSpaceOnUse" gradientTransform="translate(157.841 297.811) rotate(16.0002) scale(9.91091 10.2298)">
<stop offset="0.11" stop-color="#EFF0F0"/>
<stop offset="1" stop-color="#231F20" stop-opacity="0.31"/>
</radialGradient>
<radialGradient id="paint21_radial_101_11" cx="0" cy="0" r="1" gradientUnits="userSpaceOnUse" gradientTransform="translate(42.7562 389.949) rotate(16.2706) scale(7.17914 7.4101)">
<stop offset="0.11" stop-color="#EFF0F0"/>
<stop offset="1" stop-color="#231F20" stop-opacity="0.31"/>
</radialGradient>
<radialGradient id="paint22_radial_101_11" cx="0" cy="0" r="1" gradientUnits="userSpaceOnUse" gradientTransform="translate(82.3093 386.565) rotate(16.0002) scale(5.79232 5.97859)">
<stop offset="0.11" stop-color="#EFF0F0"/>
<stop offset="1" stop-color="#231F20" stop-opacity="0.31"/>
</radialGradient>
<radialGradient id="paint23_radial_101_11" cx="0" cy="0" r="1" gradientUnits="userSpaceOnUse" gradientTransform="translate(125.614 400.691) rotate(16.0002) scale(4.812 4.96681)">
<stop offset="0.11" stop-color="#EFF0F0"/>
<stop offset="1" stop-color="#231F20" stop-opacity="0.31"/>
</radialGradient>
<radialGradient id="paint24_radial_101_11" cx="0" cy="0" r="1" gradientUnits="userSpaceOnUse" gradientTransform="translate(256.594 368.475) rotate(16.0002) scale(4.89568 5.0532)">
<stop offset="0.11" stop-color="#EFF0F0"/>
<stop offset="1" stop-color="#231F20" stop-opacity="0.31"/>
</radialGradient>
<radialGradient id="paint25_radial_101_11" cx="0" cy="0" r="1" gradientUnits="userSpaceOnUse" gradientTransform="translate(206.039 383.01) rotate(16.0002) scale(4.47724 4.62124)">
<stop offset="0.11" stop-color="#EFF0F0"/>
<stop offset="1" stop-color="#231F20" stop-opacity="0.31"/>
</radialGradient>
<radialGradient id="paint26_radial_101_11" cx="0" cy="0" r="1" gradientUnits="userSpaceOnUse" gradientTransform="translate(188.1 350.464) rotate(16.0002) scale(6.4917 6.70053)">
<stop offset="0.11" stop-color="#EFF0F0"/>
<stop offset="1" stop-color="#231F20" stop-opacity="0.31"/>
</radialGradient>
<radialGradient id="paint27_radial_101_11" cx="0" cy="0" r="1" gradientUnits="userSpaceOnUse" gradientTransform="translate(87.368 344.278) rotate(16.2706) scale(6.56344 6.77455)">
<stop offset="0.11" stop-color="#EFF0F0"/>
<stop offset="1" stop-color="#231F20" stop-opacity="0.31"/>
</radialGradient>
<radialGradient id="paint28_radial_101_11" cx="0" cy="0" r="1" gradientUnits="userSpaceOnUse" gradientTransform="translate(42.0483 329.452) rotate(16.2706) scale(5.15273 5.31847)">
<stop offset="0.11" stop-color="#EFF0F0"/>
<stop offset="1" stop-color="#231F20" stop-opacity="0.31"/>
</radialGradient>
<radialGradient id="paint29_radial_101_11" cx="0" cy="0" r="1" gradientUnits="userSpaceOnUse" gradientTransform="translate(157.708 287.833) rotate(16.2706) scale(7.05361 7.28048)">
<stop offset="0.11" stop-color="#EFF0F0"/>
<stop offset="1" stop-color="#231F20" stop-opacity="0.31"/>
</radialGradient>
<radialGradient id="paint30_radial_101_11" cx="0" cy="0" r="1" gradientUnits="userSpaceOnUse" gradientTransform="translate(340.903 309.217) rotate(16.0002) scale(5.80428 5.99101)">
<stop offset="0.11" stop-color="#EFF0F0"/>
<stop offset="1" stop-color="#231F20" stop-opacity="0.31"/>
</radialGradient>
<radialGradient id="paint31_radial_101_11" cx="0" cy="0" r="1" gradientUnits="userSpaceOnUse" gradientTransform="translate(318.519 373.991) rotate(16.0002) scale(5.93579 6.12674)">
<stop offset="0.11" stop-color="#EFF0F0"/>
<stop offset="1" stop-color="#231F20" stop-opacity="0.31"/>
</radialGradient>
<radialGradient id="paint32_radial_101_11" cx="0" cy="0" r="1" gradientUnits="userSpaceOnUse" gradientTransform="translate(284.519 353.093) rotate(16.0002) scale(5.5831 5.76272)">
<stop offset="0.11" stop-color="#EFF0F0"/>
<stop offset="1" stop-color="#231F20" stop-opacity="0.31"/>
</radialGradient>
<radialGradient id="paint33_radial_101_11" cx="0" cy="0" r="1" gradientUnits="userSpaceOnUse" gradientTransform="translate(189.662 317.218) rotate(16.0002) scale(5.24238 5.41104)">
<stop offset="0.11" stop-color="#EFF0F0"/>
<stop offset="1" stop-color="#231F20" stop-opacity="0.31"/>
</radialGradient>
<radialGradient id="paint34_radial_101_11" cx="0" cy="0" r="1" gradientUnits="userSpaceOnUse" gradientTransform="translate(87.0619 309.503) rotate(16.0002) scale(7.20902 7.44091)">
<stop offset="0.11" stop-color="#EFF0F0"/>
<stop offset="1" stop-color="#231F20" stop-opacity="0.31"/>
</radialGradient>
<radialGradient id="paint35_radial_101_11" cx="0" cy="0" r="1" gradientUnits="userSpaceOnUse" gradientTransform="translate(12.0786 359.737) rotate(16.0002) scale(6.74276 6.9597)">
<stop offset="0.11" stop-color="#EFF0F0"/>
<stop offset="1" stop-color="#231F20" stop-opacity="0.31"/>
</radialGradient>
<radialGradient id="paint36_radial_101_11" cx="0" cy="0" r="1" gradientUnits="userSpaceOnUse" gradientTransform="translate(4.19582 400.034) rotate(16.0002) scale(5.70863 5.89227)">
<stop offset="0.11" stop-color="#EFF0F0"/>
<stop offset="1" stop-color="#231F20" stop-opacity="0.31"/>
</radialGradient>
<radialGradient id="paint37_radial_101_11" cx="0" cy="0" r="1" gradientUnits="userSpaceOnUse" gradientTransform="translate(2.06422 363.807) rotate(101.013) scale(5.25745 5.42011)">
<stop offset="0.11" stop-color="#EFF0F0"/>
<stop offset="1" stop-color="#231F20" stop-opacity="0.31"/>
</radialGradient>
<radialGradient id="paint38_radial_101_11" cx="0" cy="0" r="1" gradientUnits="userSpaceOnUse" gradientTransform="translate(-4.85662 299.152) rotate(101.013) scale(6.11272 6.30189)">
<stop offset="0.11" stop-color="#EFF0F0"/>
<stop offset="1" stop-color="#231F20" stop-opacity="0.31"/>
</radialGradient>
<radialGradient id="paint39_radial_101_11" cx="0" cy="0" r="1" gradientUnits="userSpaceOnUse" gradientTransform="translate(35.7288 296.378) rotate(101.013) scale(7.18344 7.40564)">
<stop offset="0.11" stop-color="#EFF0F0"/>
<stop offset="1" stop-color="#231F20" stop-opacity="0.31"/>
</radialGradient>
<radialGradient id="paint40_radial_101_11" cx="0" cy="0" r="1" gradientUnits="userSpaceOnUse" gradientTransform="translate(39.8185 343.549) rotate(101.013) scale(5.79577 5.97507)">
<stop offset="0.11" stop-color="#EFF0F0"/>
<stop offset="1" stop-color="#231F20" stop-opacity="0.31"/>
</radialGradient>
<radialGradient id="paint41_radial_101_11" cx="0" cy="0" r="1" gradientUnits="userSpaceOnUse" gradientTransform="translate(29.4999 387.931) rotate(101.013) scale(4.81485 4.96382)">
<stop offset="0.11" stop-color="#EFF0F0"/>
<stop offset="1" stop-color="#231F20" stop-opacity="0.31"/>
</radialGradient>
<radialGradient id="paint42_radial_101_11" cx="0" cy="0" r="1" gradientUnits="userSpaceOnUse" gradientTransform="translate(84.8892 336.654) rotate(101.013) scale(6.56736 6.77052)">
<stop offset="0.11" stop-color="#EFF0F0"/>
<stop offset="1" stop-color="#231F20" stop-opacity="0.31"/>
</radialGradient>
<radialGradient id="paint43_radial_101_11" cx="0" cy="0" r="1" gradientUnits="userSpaceOnUse" gradientTransform="translate(95.6166 290.383) rotate(101.013) scale(5.15575 5.31529)">
<stop offset="0.11" stop-color="#EFF0F0"/>
<stop offset="1" stop-color="#231F20" stop-opacity="0.31"/>
</radialGradient>
<radialGradient id="paint44_radial_101_11" cx="0" cy="0" r="1" gradientUnits="userSpaceOnUse" gradientTransform="translate(146.972 401.515) rotate(101.013) scale(7.05779 7.27614)">
<stop offset="0.11" stop-color="#EFF0F0"/>
<stop offset="1" stop-color="#231F20" stop-opacity="0.31"/>
</radialGradient>
<radialGradient id="paint45_radial_101_11" cx="0" cy="0" r="1" gradientUnits="userSpaceOnUse" gradientTransform="translate(116.94 341.62) rotate(101.013) scale(7.2133 7.43648)">
<stop offset="0.11" stop-color="#EFF0F0"/>
<stop offset="1" stop-color="#231F20" stop-opacity="0.31"/>
</radialGradient>
<radialGradient id="paint46_radial_101_11" cx="0" cy="0" r="1" gradientUnits="userSpaceOnUse" gradientTransform="translate(60.4462 271.213) rotate(101.013) scale(6.74675 6.95551)">
<stop offset="0.11" stop-color="#EFF0F0"/>
<stop offset="1" stop-color="#231F20" stop-opacity="0.31"/>
</radialGradient>
<radialGradient id="paint47_radial_101_11" cx="0" cy="0" r="1" gradientUnits="userSpaceOnUse" gradientTransform="translate(19.64 266.844) rotate(101.013) scale(5.7121 5.88875)">
<stop offset="0.11" stop-color="#EFF0F0"/>
<stop offset="1" stop-color="#231F20" stop-opacity="0.31"/>
</radialGradient>
</defs>
</svg>
